HIERARCHY
ROOT bottle1_body
{
	OFFSET 0.000000 0.000000 0.000000
	CHANNELS 6 Xposition Yposition Zposition Yrotation Xrotation Zrotation
	End Site
	{
		OFFSET 0.000000 0.000000 0.000000
	}
}
MOTION
Frames: 175
Frame Time: 0.008333334
1.216124 4.763904 3.461729 74.113180 3.599561 -0.571838 
1.215758 4.747736 3.454772 73.976530 3.773873 -1.035248 
1.216425 4.730468 3.448114 74.259140 3.398094 -0.931274 
1.216071 4.715418 3.441397 74.284910 3.176320 -1.115356 
1.214126 4.702471 3.434493 73.876440 3.681994 -1.917206 
1.214923 4.685702 3.429601 74.457220 2.874553 -1.507904 
1.214461 4.672112 3.422923 74.462410 2.632188 -1.702515 
1.213590 4.659581 3.417155 74.373050 2.751673 -2.102356 
1.213551 4.646920 3.412273 74.420400 2.540129 -2.230560 
1.212541 4.636699 3.406844 73.959690 2.943048 -2.892273 
1.213579 4.624534 3.404071 74.053240 2.796634 -2.919464 
1.214324 4.624149 3.403311 73.713370 3.079028 -2.999939 
1.214437 4.626967 3.404501 73.462860 3.146096 -2.825348 
1.214105 4.627310 3.406333 73.548950 3.038052 -2.699097 
1.215199 4.626243 3.405764 73.605150 3.007109 -2.768951 
1.217441 4.624610 3.405936 73.815540 2.939484 -2.667328 
1.220823 4.621442 3.406334 74.207140 2.411745 -2.182281 
1.222853 4.622279 3.404966 73.444950 3.228193 -2.599457 
1.228570 4.619791 3.406211 74.146410 2.424383 -1.857605 
1.231974 4.619829 3.406753 74.007840 2.478048 -1.839783 
1.234490 4.620998 3.406250 73.210860 3.334731 -2.342316 
1.239413 4.620961 3.406811 73.530160 3.160555 -2.211853 
1.243631 4.620647 3.407017 73.379550 3.429981 -2.109100 
1.246360 4.621181 3.405509 72.968960 3.756966 -2.337158 
1.251151 4.619445 3.406457 73.535480 3.127721 -1.862335 
1.255260 4.618304 3.406352 73.733570 2.931577 -1.528107 
1.258550 4.618070 3.406865 73.617390 3.085943 -1.420807 
1.260635 4.618369 3.406762 73.343690 3.231855 -1.616486 
1.262838 4.618114 3.407590 73.265480 3.246089 -1.485291 
1.264466 4.617200 3.409187 73.211240 3.400388 -1.356964 
1.265541 4.616569 3.410097 73.098250 3.388626 -1.267487 
1.265923 4.615806 3.411403 73.054600 3.327693 -1.129913 
1.265857 4.615079 3.412858 73.017020 3.219127 -0.976013 
1.263789 4.616922 3.412973 72.233480 4.050560 -1.481354 
1.265880 4.616570 3.412902 72.247550 4.054499 -1.413574 
1.266633 4.616710 3.413710 72.113910 3.964606 -1.414948 
1.267285 4.616584 3.415449 71.944910 3.991738 -1.400055 
1.269149 4.615514 3.418153 72.215100 3.661716 -1.101379 
1.269848 4.615659 3.420183 72.121640 3.784742 -1.127045 
1.271037 4.615281 3.422322 72.061190 3.815815 -1.049927 
1.272054 4.615424 3.424118 71.966710 3.818870 -0.995972 
1.272813 4.615519 3.426088 71.879490 3.789052 -0.955109 
1.274017 4.615650 3.427931 71.854750 3.869221 -0.934387 
1.275149 4.615661 3.429502 71.856390 3.919148 -0.901215 
1.275860 4.615726 3.430363 71.851300 3.897698 -0.916382 
1.275964 4.615726 3.430604 71.912730 3.872225 -0.929138 
1.275986 4.615384 3.430729 72.075510 3.782701 -0.901001 
1.275789 4.615196 3.430200 72.226480 3.762382 -0.930237 
1.275677 4.614998 3.429588 72.430860 3.693572 -0.924042 
1.274895 4.615084 3.428410 72.565540 3.669274 -1.040344 
1.274029 4.615330 3.426708 72.716390 3.598124 -1.121124 
1.273083 4.615266 3.425256 72.836550 3.572203 -1.156403 
1.272697 4.615219 3.424428 72.882260 3.539958 -1.152527 
1.272511 4.615113 3.424010 72.880740 3.510393 -1.125153 
1.272602 4.615098 3.424097 72.876950 3.533737 -1.139648 
1.272702 4.614965 3.424312 72.883740 3.504292 -1.106720 
1.272903 4.614964 3.424674 72.873610 3.544752 -1.078156 
1.273471 4.614962 3.425276 72.813400 3.538838 -1.131378 
1.274167 4.615252 3.425723 72.888700 3.545605 -1.074829 
1.274559 4.615117 3.426563 72.793810 3.566194 -1.082489 
1.275250 4.615463 3.427364 72.850100 3.560029 -1.043152 
1.275237 4.615142 3.428903 72.756390 3.674901 -0.980896 
1.275674 4.615302 3.429604 72.794270 3.701363 -0.994141 
1.276058 4.615264 3.430161 72.815860 3.656211 -1.006439 
1.275889 4.615183 3.430652 72.791210 3.635616 -0.978851 
1.275668 4.615108 3.430882 72.782720 3.628857 -0.974945 
1.275255 4.615150 3.430745 72.777300 3.608999 -0.985901 
1.274796 4.615303 3.430346 72.810920 3.576951 -1.002258 
1.274412 4.615091 3.430114 72.823170 3.584665 -0.984772 
1.273804 4.615167 3.429335 72.803120 3.553729 -1.042908 
1.273781 4.615622 3.428800 72.853940 3.546658 -1.084381 
1.273575 4.615352 3.429120 72.791300 3.595927 -1.057251 
1.273595 4.615417 3.429319 72.772700 3.556933 -1.066711 
1.274171 4.615241 3.430029 72.807780 3.566555 -1.047729 
1.274555 4.615095 3.430632 72.797560 3.585166 -0.989471 
1.274854 4.615183 3.431105 72.776540 3.622701 -0.987396 
1.274950 4.615184 3.431500 72.792110 3.635004 -0.982452 
1.275019 4.615248 3.431350 72.803040 3.645051 -0.972900 
1.275135 4.615248 3.431181 72.828830 3.601808 -0.990814 
1.274536 4.615187 3.430808 72.744460 3.632444 -1.037872 
1.274218 4.615220 3.430546 72.770590 3.545168 -1.034119 
1.273870 4.615231 3.429892 72.747910 3.592472 -1.076324 
1.273580 4.615186 3.429364 72.735530 3.597156 -1.071472 
1.273494 4.615142 3.428996 72.735630 3.596119 -1.061523 
1.273736 4.615016 3.428929 72.750650 3.625789 -1.005890 
1.274164 4.614960 3.428746 72.772320 3.558949 -1.032288 
1.274501 4.614840 3.428970 72.786510 3.610530 -0.972717 
1.274589 4.615090 3.428624 72.719250 3.627439 -1.043823 
1.274633 4.615095 3.428479 72.717780 3.621125 -1.035767 
1.274671 4.614985 3.428461 72.761010 3.577456 -1.011841 
1.274437 4.614931 3.428165 72.742230 3.656423 -0.997986 
1.274150 4.614831 3.427702 72.759400 3.627596 -1.031464 
1.273934 4.614821 3.427417 72.754740 3.636900 -1.037689 
1.273809 4.614802 3.427337 72.754060 3.635006 -1.037842 
1.274100 4.614948 3.427448 72.826460 3.600547 -1.019806 
1.274117 4.614783 3.427693 72.753580 3.627238 -1.033966 
1.274284 4.614794 3.428088 72.760670 3.656760 -0.996979 
1.273878 4.614514 3.428635 72.772970 3.574171 -1.002411 
1.272667 4.614005 3.429678 72.816110 3.532166 -0.949554 
1.271043 4.614244 3.430256 72.799320 3.554751 -0.971191 
1.270219 4.614275 3.430113 72.833610 3.547846 -0.979767 
1.269137 4.614226 3.429791 72.765650 3.487489 -1.033295 
1.269253 4.614275 3.430440 72.803700 3.419015 -1.017609 
1.270311 4.614360 3.430883 72.780090 3.432954 -0.998291 
1.272382 4.614376 3.431541 72.802700 3.575598 -1.006683 
1.274027 4.614417 3.433409 72.820570 3.628122 -0.947815 
1.275032 4.614490 3.436044 72.818340 3.666236 -0.910217 
1.275754 4.614274 3.438613 72.807080 3.754503 -0.812195 
1.275996 4.614423 3.440313 72.761970 3.776220 -0.733521 
1.275830 4.614362 3.441115 72.788880 3.752531 -0.724915 
1.274783 4.613961 3.440602 72.744800 3.797026 -0.771057 
1.273284 4.613521 3.439109 72.758580 3.762778 -0.807739 
1.271255 4.613218 3.437057 72.782620 3.712924 -0.752350 
1.268883 4.612735 3.433948 72.789870 3.573917 -0.811157 
1.266317 4.612553 3.429956 72.782970 3.463789 -0.919281 
1.264067 4.612731 3.426900 72.767070 3.410644 -0.958832 
1.261687 4.612777 3.424614 72.842860 3.192117 -1.048309 
1.260197 4.612369 3.424119 72.802850 3.207709 -1.079468 
1.259654 4.612179 3.423475 72.815700 3.185985 -1.089691 
1.259980 4.612055 3.423845 72.805980 3.207812 -1.100983 
1.260609 4.612160 3.425302 72.826820 3.226912 -1.045227 
1.261934 4.612021 3.428300 72.749980 3.387874 -0.961762 
1.264170 4.611694 3.430893 72.772800 3.456823 -0.910675 
1.265672 4.611610 3.433726 72.793380 3.556566 -0.868622 
1.266389 4.611902 3.435955 72.803360 3.554079 -0.792755 
1.267048 4.612075 3.438134 72.794450 3.626731 -0.694458 
1.267900 4.612112 3.438842 72.752940 3.672319 -0.746368 
1.268325 4.612155 3.439273 72.734630 3.685846 -0.748169 
1.268122 4.612152 3.439620 72.747150 3.673608 -0.750702 
1.267583 4.612240 3.439141 72.779720 3.607063 -0.752258 
1.266936 4.612001 3.438589 72.765160 3.635105 -0.776947 
1.265799 4.611823 3.437660 72.789180 3.627994 -0.745209 
1.264293 4.611631 3.435992 72.778470 3.549291 -0.845367 
1.262677 4.611234 3.434404 72.796980 3.474588 -0.845154 
1.260936 4.611327 3.432018 72.792950 3.335461 -0.901215 
1.259580 4.611344 3.430223 72.783660 3.340939 -0.934692 
1.258198 4.611084 3.429515 72.748860 3.305833 -0.957459 
1.257793 4.611000 3.429338 72.750210 3.289426 -0.961670 
1.258431 4.611087 3.429209 72.712940 3.368396 -0.985657 
1.259792 4.611205 3.429704 72.747120 3.401015 -0.959320 
1.260787 4.610950 3.430932 72.786450 3.395536 -0.887482 
1.261530 4.610889 3.431765 72.762100 3.416142 -0.849976 
1.262005 4.611049 3.432345 72.715550 3.473663 -0.895172 
1.262521 4.611042 3.432848 72.780080 3.432687 -0.879364 
1.262364 4.611104 3.433671 72.790430 3.491641 -0.803589 
1.261432 4.610874 3.433540 72.792460 3.404380 -0.821686 
1.260482 4.610765 3.433468 72.789020 3.396805 -0.812897 
1.259700 4.610899 3.432803 72.791110 3.411148 -0.875580 
1.258569 4.611008 3.433064 72.763400 3.375652 -0.895599 
1.258277 4.611062 3.433406 72.774930 3.389394 -0.920227 
1.258475 4.611168 3.433717 72.778490 3.348218 -0.934845 
1.259564 4.611342 3.434791 72.806630 3.396861 -0.943054 
1.260779 4.611315 3.436491 72.821460 3.482039 -0.921967 
1.261640 4.611461 3.437687 72.771120 3.471832 -0.918549 
1.262472 4.611415 3.439238 72.792920 3.563569 -0.830689 
1.262895 4.611422 3.440285 72.782680 3.589670 -0.828857 
1.262774 4.611639 3.440771 72.787350 3.589869 -0.843933 
1.262478 4.611732 3.441128 72.796410 3.555456 -0.865540 
1.262116 4.611594 3.441419 72.786660 3.588815 -0.864288 
1.261397 4.611609 3.440993 72.784150 3.573309 -0.859314 
1.260629 4.611546 3.440261 72.801280 3.541229 -0.857727 
1.259969 4.611448 3.439018 72.787650 3.501225 -0.877441 
1.259401 4.611603 3.437943 72.834820 3.467225 -0.874664 
1.259045 4.611673 3.437540 72.835300 3.469565 -0.877197 
1.259608 4.611554 3.437721 72.832710 3.485574 -0.875000 
1.260592 4.611462 3.438324 72.795760 3.503973 -0.879273 
1.261569 4.611466 3.438904 72.777470 3.491138 -0.906860 
1.262203 4.611608 3.439654 72.783940 3.529064 -0.887940 
1.262597 4.611617 3.440192 72.792470 3.570848 -0.861298 
1.262856 4.611587 3.440310 72.794650 3.614686 -0.810425 
1.262856 4.611661 3.439816 72.787510 3.574844 -0.857117 
1.262276 4.611626 3.439357 72.775720 3.535281 -0.861694 
1.261643 4.611471 3.438778 72.790760 3.529719 -0.861542 
1.260798 4.611509 3.437897 72.790460 3.499881 -0.884613 
1.259879 4.611624 3.437036 72.794600 3.407169 -0.958069 
